# xmcd
#
# Track frame offsets: 
#        150
#        12728
#        28290
#        40026
#        54627
#        66749
#        81984
#        96794
#        111834
#        128928
#        144094
#        158591
#
# Disc length: 2336 seconds
#
# Revision: 1
# Processed by: cddbd v1.5.2PL0 Copyright (c) Steve Scherf et al.
# Submitted via: ExactAudioCopyFreeDBPlugin 1.0
#
DISCID=a7091e0c
DTITLE=Dolly Parton - Greatest Hits [CD 2)
DYEAR=2008
DGENRE=Country
TTITLE0=9 to 5
TTITLE1=Old Flames
TTITLE2=Baby I'm Burning
TTITLE3=Sweet Summer Lovin'
TTITLE4=The Bargain Store
TTITLE5=Think About Love
TTITLE6=The Seeker
TTITLE7=Don't Call It Love
TTITLE8=Save the Last Dance for Me
TTITLE9=You're the Only One
TTITLE10=Heartbreak Express
TTITLE11=Single Woman
EXTD=YEAR: 2008
EXTT0=
EXTT1=
EXTT2=
EXTT3=
EXTT4=
EXTT5=
EXTT6=
EXTT7=
EXTT8=
EXTT9=
EXTT10=
EXTT11=
PLAYORDER=
